<mxfile host="app.diagrams.net" modified="2024-01-19T05:23:18.555Z" agent="Mozilla/5.0 (Windows NT 10.0; Win64; x64; rv:121.0) Gecko/20100101 Firefox/121.0" version="22.1.21" etag="PJG0F8NfmJ7MjUcjFOUq" type="github">
  <diagram name="Page-1" id="22nV3bDqBt_BpEI8LJPN">
    <mxGraphModel>
      <root>
        <mxCell id="0" />
        <mxCell id="1" parent="0" />
      </root>
    </mxGraphModel>
  </diagram>
</mxfile>
